<?xml version="1.0" encoding="UTF-8" standalone="no"?>
<!-- Created with Inkscape (http://www.inkscape.org/) -->

<svg
   version="1.1"
   id="svg1"
   width="100"
   height="100"
   viewBox="0 0 51.200001 51.200001"
   xmlns="http://www.w3.org/2000/svg"
   xmlns:svg="http://www.w3.org/2000/svg">
  <defs
     id="defs1" />
  <g
     id="g1">
    <path
       style="fill:{color4};"
       d="M 20.489936,49.39127 C 4.0965897,45.830995 -3.7381224,26.238425 5.6303676,12.23137 16.777327,-4.4347171 41.960399,-0.91007325 48.275371,18.2 54.032849,35.623012 38.318742,53.263295 20.489936,49.39127 Z m 7.72852,-8.006889 C 40.686867,39.214785 42.610105,35.221894 31.2,35.194308 15.252829,35.155753 13.708076,30.271999 28.422003,26.41164 c 2.460323,-0.645493 4.543051,-1.24336 4.628285,-1.328594 0.08523,-0.08523 -2.342342,-1.351582 -5.394613,-2.814107 C 18.795777,18.023634 18.953676,16.97211 28.6,15.980207 c 6.289887,-0.64677 7.400001,-1.179253 7.400001,-3.549517 0,-3.5911913 -3.419074,-4.8459449 -9.241821,-3.391623 -5.568301,1.39077 -5.764139,1.759631 -0.93818,1.767058 9.159527,0.0141 5.573659,1.678434 -5.62,2.608455 -8.376983,0.696 -7.951016,4.633072 0.967922,8.94617 3.094417,1.496426 3.094417,1.496426 -0.136752,1.962441 -17.4063176,2.510423 -11.8977038,14.976812 6.134816,13.88353 6.135917,-0.372011 5.544408,0.136622 -2.564936,2.205563 -3.504864,0.894198 -6.468909,1.731159 -6.586765,1.859914 -0.319282,0.348806 6.514297,-0.245751 10.204171,-0.887817 z"
       id="path2" />
  </g>
</svg>
